<svg width="22" height="22" viewBox="0 0 22 22" fill="none" xmlns="http://www.w3.org/2000/svg">
<path d="M12.1962 20.625L11 19.9375L13.75 15.125H17.875C18.2397 15.125 18.5894 14.9801 18.8473 14.7223C19.1051 14.4644 19.25 14.1147 19.25 13.75V5.5C19.25 5.13533 19.1051 4.78559 18.8473 4.52773C18.5894 4.26987 18.2397 4.125 17.875 4.125H4.125C3.76033 4.125 3.41059 4.26987 3.15273 4.52773C2.89487 4.78559 2.75 5.13533 2.75 5.5V13.75C2.75 14.1147 2.89487 14.4644 3.15273 14.7223C3.41059 14.9801 3.76033 15.125 4.125 15.125H10.3125V16.5H4.125C3.39565 16.5 2.69618 16.2103 2.18046 15.6945C1.66473 15.1788 1.375 14.4793 1.375 13.75V5.5C1.375 4.77065 1.66473 4.07118 2.18046 3.55546C2.69618 3.03973 3.39565 2.75 4.125 2.75H17.875C18.6043 2.75 19.3038 3.03973 19.8195 3.55546C20.3353 4.07118 20.625 4.77065 20.625 5.5V13.75C20.625 14.4793 20.3353 15.1788 19.8195 15.6945C19.3038 16.2103 18.6043 16.5 17.875 16.5H14.5475L12.1962 20.625Z" fill="black"/>
<path d="M5.5 6.875H16.5V8.25H5.5V6.875ZM5.5 11H12.375V12.375H5.5V11Z" fill="black"/>
</svg>
