<svg width="22" height="22" viewBox="0 0 22 22" fill="none" xmlns="http://www.w3.org/2000/svg">
<path d="M17.6688 6.39375L12.8563 1.58125C12.7188 1.44375 12.5813 1.375 12.375 1.375H5.5C4.74375 1.375 4.125 1.99375 4.125 2.75V19.25C4.125 20.0063 4.74375 20.625 5.5 20.625H16.5C17.2563 20.625 17.875 20.0063 17.875 19.25V6.875C17.875 6.66875 17.8063 6.53125 17.6688 6.39375ZM12.375 3.025L16.225 6.875H12.375V3.025ZM16.5 19.25H5.5V2.75H11V6.875C11 7.63125 11.6188 8.25 12.375 8.25H16.5V19.25Z" fill="black"/>
<path d="M6.875 15.125H15.125V16.5H6.875V15.125ZM6.875 11H15.125V12.375H6.875V11Z" fill="black"/>
</svg>
