<svg width="66" height="66" viewBox="0 0 66 66" fill="none" xmlns="http://www.w3.org/2000/svg">
<path d="M8.25 41.25V45.375H17.7086L4.125 58.9586L7.04138 61.875L20.625 48.2914V57.75H24.75V41.25H8.25ZM39.1875 28.875C40.4113 28.875 41.6076 28.5121 42.6251 27.8322C43.6426 27.1523 44.4357 26.186 44.904 25.0554C45.3723 23.9247 45.4949 22.6806 45.2561 21.4804C45.0174 20.2801 44.4281 19.1776 43.5627 18.3123C42.6974 17.4469 41.5949 16.8576 40.3946 16.6189C39.1944 16.3801 37.9503 16.5027 36.8196 16.971C35.689 17.4393 34.7227 18.2324 34.0428 19.2499C33.3629 20.2674 33 21.4637 33 22.6875C33 24.3285 33.6519 25.9023 34.8123 27.0627C35.9727 28.2231 37.5465 28.875 39.1875 28.875ZM39.1875 20.625C39.5954 20.625 39.9942 20.746 40.3334 20.9726C40.6725 21.1992 40.9369 21.5213 41.093 21.8982C41.2491 22.2751 41.29 22.6898 41.2104 23.0899C41.1308 23.49 40.9344 23.8575 40.6459 24.1459C40.3575 24.4344 39.99 24.6308 39.5899 24.7104C39.1898 24.79 38.7751 24.7491 38.3982 24.593C38.0213 24.4369 37.6992 24.1725 37.4726 23.8334C37.246 23.4942 37.125 23.0954 37.125 22.6875C37.125 22.1405 37.3423 21.6159 37.7291 21.2291C38.1159 20.8423 38.6405 20.625 39.1875 20.625Z" fill="#667085"/>
<path d="M53.625 8.25H12.375C11.281 8.25 10.2318 8.6846 9.45818 9.45818C8.6846 10.2318 8.25 11.281 8.25 12.375V33H12.375V12.375H53.625V43.6631L46.2206 36.2587C45.4478 35.4905 44.4023 35.0592 43.3125 35.0592C42.2227 35.0592 41.1772 35.4905 40.4044 36.2587L37.125 39.5381L24.401 26.8125L21.4824 29.732L28.875 37.125L34.2169 42.4669C34.9897 43.2352 36.0352 43.6664 37.125 43.6664C38.2148 43.6664 39.2603 43.2352 40.0331 42.4669L43.3125 39.1875L53.625 49.5V53.625H33V57.75H53.625C54.719 57.75 55.7682 57.3154 56.5418 56.5418C57.3154 55.7682 57.75 54.719 57.75 53.625V12.375C57.75 11.281 57.3154 10.2318 56.5418 9.45818C55.7682 8.6846 54.719 8.25 53.625 8.25Z" fill="#667085"/>
</svg>
