<svg width="22" height="22" viewBox="0 0 22 22" fill="none" xmlns="http://www.w3.org/2000/svg">
<path fill-rule="evenodd" clip-rule="evenodd" d="M10.4374 1.1096C10.7684 0.852139 11.2319 0.852139 11.5629 1.1096L19.8129 7.52626C20.0362 7.69993 20.1668 7.96696 20.1668 8.24984V18.3332C20.1668 19.0625 19.8771 19.762 19.3614 20.2777C18.8456 20.7934 18.1462 21.0832 17.4168 21.0832H4.5835C3.85415 21.0832 3.15468 20.7934 2.63895 20.2777C2.12323 19.762 1.8335 19.0625 1.8335 18.3332V8.24984C1.8335 7.96696 1.9641 7.69993 2.18738 7.52626L10.4374 1.1096ZM3.66683 8.69816V18.3332C3.66683 18.5763 3.76341 18.8094 3.93531 18.9813C4.10722 19.1533 4.34038 19.2498 4.5835 19.2498H17.4168C17.6599 19.2498 17.8931 19.1533 18.065 18.9813C18.2369 18.8094 18.3335 18.5763 18.3335 18.3332V8.69816L11.0002 2.99446L3.66683 8.69816Z" fill="black"/>
<path fill-rule="evenodd" clip-rule="evenodd" d="M12.5415 11.8463C14.9103 10.5725 17.6768 10.6237 19.4886 11.0263L19.0114 13.1739C17.5232 12.8432 15.3397 12.8395 13.5835 13.7839C11.9318 14.6722 10.45 16.5095 10.45 20.3501H8.25C8.25 15.8307 10.0682 13.1764 12.5415 11.8463Z" fill="black"/>
</svg>
