<svg width="22" height="22" viewBox="0 0 22 22" fill="none" xmlns="http://www.w3.org/2000/svg">
<path fill-rule="evenodd" clip-rule="evenodd" d="M10.4371 1.10984C10.7682 0.852383 11.2317 0.852383 11.5627 1.10984L19.8127 7.52651C20.036 7.70018 20.1666 7.96721 20.1666 8.25008V18.3334C20.1666 19.0628 19.8769 19.7622 19.3611 20.278C18.8454 20.7937 18.1459 21.0834 17.4166 21.0834H4.58325C3.85391 21.0834 3.15443 20.7937 2.63871 20.278C2.12298 19.7622 1.83325 19.0628 1.83325 18.3334V8.25008C1.83325 7.96721 1.96385 7.70018 2.18714 7.52651L10.4371 1.10984ZM3.66659 8.69841V18.3334C3.66659 18.5765 3.76316 18.8097 3.93507 18.9816C4.10698 19.1535 4.34014 19.2501 4.58325 19.2501H17.4166C17.6597 19.2501 17.8929 19.1535 18.0648 18.9816C18.2367 18.8097 18.3333 18.5765 18.3333 18.3334V8.69841L10.9999 2.9947L3.66659 8.69841Z" fill="black"/>
<path fill-rule="evenodd" clip-rule="evenodd" d="M12.5415 11.8461C14.9103 10.5722 17.6768 10.6234 19.4886 11.0261L19.0114 13.1737C17.5232 12.843 15.3397 12.8392 13.5835 13.7837C11.9318 14.6719 10.45 16.5093 10.45 20.3499H8.25C8.25 15.8305 10.0682 13.1762 12.5415 11.8461Z" fill="black"/>
</svg>
