<svg width="22" height="22" viewBox="0 0 22 22" fill="none" xmlns="http://www.w3.org/2000/svg">
<path d="M5.5 12.375H9.625V13.75H5.5V12.375ZM5.5 15.125H12.375V16.5H5.5V15.125Z" fill="black"/>
<path d="M17.875 2.75H4.125C3.76047 2.75045 3.41099 2.89547 3.15323 3.15323C2.89547 3.41099 2.75045 3.76047 2.75 4.125V17.875C2.75045 18.2395 2.89547 18.589 3.15323 18.8468C3.41099 19.1045 3.76047 19.2495 4.125 19.25H17.875C18.2395 19.2495 18.589 19.1045 18.8468 18.8468C19.1045 18.589 19.2495 18.2395 19.25 17.875V4.125C19.2495 3.76047 19.1045 3.41099 18.8468 3.15323C18.589 2.89547 18.2395 2.75045 17.875 2.75ZM12.375 4.125V6.875H9.625V4.125H12.375ZM4.125 17.875V4.125H8.25V8.25H13.75V4.125H17.875L17.8758 17.875H4.125Z" fill="black"/>
</svg>
