<svg width="17" height="15" viewBox="0 0 17 15" fill="none" xmlns="http://www.w3.org/2000/svg">
<path d="M16.475 5.09375C16.4163 5.02515 16.3435 4.97007 16.2615 4.93231C16.1795 4.89454 16.0903 4.87499 16 4.875H12.25V2.375C12.25 1.87772 12.0525 1.40081 11.7008 1.04917C11.3492 0.697544 10.8723 0.5 10.375 0.5H6.625C6.12772 0.5 5.6508 0.697544 5.29917 1.04917C4.94754 1.40081 4.75 1.87772 4.75 2.375V4.875H0.999997C0.909401 4.87397 0.819665 4.89266 0.737006 4.92976C0.654347 4.96685 0.580743 5.02148 0.521292 5.08985C0.46184 5.15822 0.417964 5.23869 0.392704 5.3257C0.367443 5.41271 0.361401 5.50417 0.374997 5.59375L1.55 13.1875C1.5952 13.4856 1.7466 13.7573 1.97631 13.9525C2.20601 14.1478 2.49854 14.2534 2.8 14.25H14.2125C14.514 14.2534 14.8065 14.1478 15.0362 13.9525C15.2659 13.7573 15.4173 13.4856 15.4625 13.1875L16.625 5.59375C16.6375 5.50452 16.6306 5.41364 16.6047 5.32734C16.5788 5.24104 16.5346 5.16135 16.475 5.09375ZM6 2.375C6 2.20924 6.06585 2.05027 6.18306 1.93306C6.30027 1.81585 6.45924 1.75 6.625 1.75H10.375C10.5408 1.75 10.6997 1.81585 10.8169 1.93306C10.9342 2.05027 11 2.20924 11 2.375V4.875H6V2.375ZM14.2125 13H2.7875L1.73125 6.125H15.2687L14.2125 13Z" fill="#32D583"/>
</svg>
