<svg width="22" height="22" viewBox="0 0 22 22" fill="none" xmlns="http://www.w3.org/2000/svg">
<path d="M19.7725 7.80313C19.7079 7.72766 19.6278 7.66708 19.5376 7.62554C19.4474 7.584 19.3493 7.56249 19.25 7.5625H15.125V4.8125C15.125 4.26549 14.9077 3.74089 14.5209 3.35409C14.1341 2.9673 13.6095 2.75 13.0625 2.75H8.93747C8.39046 2.75 7.86586 2.9673 7.47906 3.35409C7.09227 3.74089 6.87497 4.26549 6.87497 4.8125V7.5625H2.74997C2.65032 7.56137 2.55161 7.58192 2.46068 7.62273C2.36976 7.66354 2.28879 7.72363 2.2234 7.79883C2.158 7.87404 2.10974 7.96256 2.08195 8.05827C2.05416 8.15398 2.04752 8.25459 2.06247 8.35312L3.35497 16.7062C3.40469 17.0341 3.57124 17.333 3.82391 17.5478C4.07659 17.7625 4.39837 17.8787 4.72997 17.875H17.2837C17.6153 17.8787 17.9371 17.7625 18.1898 17.5478C18.4425 17.333 18.609 17.0341 18.6587 16.7062L19.9375 8.35312C19.9512 8.25497 19.9436 8.15501 19.9151 8.06007C19.8867 7.96514 19.838 7.87749 19.7725 7.80313ZM8.24997 4.8125C8.24997 4.63016 8.32241 4.4553 8.45134 4.32636C8.58027 4.19743 8.75514 4.125 8.93747 4.125H13.0625C13.2448 4.125 13.4197 4.19743 13.5486 4.32636C13.6775 4.4553 13.75 4.63016 13.75 4.8125V7.5625H8.24997V4.8125ZM17.2837 16.5H4.71622L3.55435 8.9375H18.4456L17.2837 16.5Z" fill="black"/>
</svg>
