<svg width="15" height="15" viewBox="0 0 15 15" fill="none" xmlns="http://www.w3.org/2000/svg">
<path opacity="0.4" d="M4.375 1.875H10.625C12.5 1.875 13.75 2.8125 13.75 5V6.96251C13.75 7.41876 13.2812 7.70626 12.8625 7.52501C12.175 7.22501 11.3938 7.1125 10.575 7.24375C8.93751 7.5125 7.6 8.80625 7.26875 10.4313C7.175 10.9063 7.1625 11.3687 7.225 11.8125C7.275 12.1812 6.975 12.5063 6.60625 12.5063H4.375C2.5 12.5063 1.25 11.5688 1.25 9.38126V5.00626C1.25 2.81251 2.5 1.875 4.375 1.875Z" fill="#BBBBBB"/>
<path d="M7.49998 7.41873C6.97498 7.41873 6.44374 7.25622 6.03749 6.92497L4.08123 5.36247C3.88123 5.19997 3.84374 4.90623 4.00624 4.70623C4.16874 4.50623 4.46248 4.46873 4.66248 4.63123L6.61873 6.19373C7.09373 6.57498 7.89998 6.57498 8.37498 6.19373L10.3312 4.63123C10.5312 4.46873 10.8312 4.49998 10.9875 4.70623C11.15 4.90623 11.1187 5.20622 10.9125 5.36247L8.95622 6.92497C8.55622 7.25622 8.02498 7.41873 7.49998 7.41873Z" fill="#BBBBBB"/>
<path d="M11.25 8.125C9.525 8.125 8.125 9.51875 8.125 11.25C8.125 12.975 9.525 14.375 11.25 14.375C12.9812 14.375 14.375 12.975 14.375 11.25C14.375 9.51875 12.9812 8.125 11.25 8.125ZM12.5312 10.9687L12.3 11.1938L10.9438 12.5562C10.8813 12.6125 10.7625 12.675 10.675 12.6875L10.0625 12.775C9.84375 12.8063 9.68749 12.65 9.71874 12.4313L9.80625 11.8188C9.81875 11.7313 9.875 11.6125 9.9375 11.55L11.3 10.1937L11.525 9.9625C11.675 9.8125 11.8438 9.71251 12.0188 9.71251C12.1688 9.71251 12.3375 9.78125 12.525 9.9625C12.9375 10.375 12.8062 10.6937 12.5312 10.9687Z" fill="#BBBBBB"/>
</svg>
