<svg width="106" height="106" viewBox="0 0 106 106" fill="none" xmlns="http://www.w3.org/2000/svg">
<path d="M53 26.5C49.7243 26.5 46.5221 27.4714 43.7984 29.2913C41.0747 31.1112 38.9518 33.6979 37.6983 36.7243C36.4447 39.7507 36.1167 43.0809 36.7558 46.2937C37.3948 49.5065 38.9722 52.4576 41.2886 54.774C43.6049 57.0903 46.556 58.6677 49.7688 59.3068C52.9816 59.9458 56.3118 59.6178 59.3382 58.3643C62.3646 57.1107 64.9513 54.9878 66.7712 52.2641C68.5911 49.5404 69.5625 46.3383 69.5625 43.0625C69.5625 38.6699 67.8175 34.4571 64.7115 31.351C61.6054 28.245 57.3927 26.5 53 26.5ZM53 53C51.0346 53 49.1132 52.4172 47.479 51.3252C45.8448 50.2333 44.5711 48.6813 43.819 46.8654C43.0668 45.0496 42.87 43.0515 43.2535 41.1238C43.6369 39.1961 44.5833 37.4254 45.9731 36.0356C47.3629 34.6458 49.1336 33.6994 51.0613 33.3159C52.989 32.9325 54.9871 33.1293 56.8029 33.8814C58.6188 34.6336 60.1708 35.9073 61.2627 37.5415C62.3547 39.1757 62.9375 41.097 62.9375 43.0625C62.9345 45.6972 61.8866 48.2231 60.0236 50.0861C58.1606 51.9491 55.6347 52.997 53 53Z" fill="#475467"/>
<path d="M53 6.625C43.8279 6.625 34.8618 9.34485 27.2354 14.4406C19.6091 19.5363 13.6651 26.7791 10.1551 35.2531C6.64508 43.727 5.7267 53.0514 7.51609 62.0473C9.30548 71.0432 13.7223 79.3064 20.2079 85.7921C26.6936 92.2777 34.9568 96.6945 43.9527 98.4839C52.9486 100.273 62.273 99.3549 70.747 95.8449C79.2209 92.3349 86.4637 86.3909 91.5594 78.7646C96.6552 71.1382 99.375 62.1721 99.375 53C99.3612 40.7048 94.4708 28.9172 85.7768 20.2232C77.0828 11.5292 65.2952 6.63885 53 6.625ZM33.125 87.3721V82.8125C33.1279 80.1778 34.1758 77.6518 36.0388 75.7888C37.9018 73.9258 40.4278 72.8779 43.0625 72.875H62.9375C65.5722 72.8779 68.0982 73.9258 69.9612 75.7888C71.8242 77.6518 72.8721 80.1778 72.875 82.8125V87.3721C66.8435 90.8941 59.9845 92.75 53 92.75C46.0155 92.75 39.1565 90.8941 33.125 87.3721ZM79.4752 82.5667C79.4093 78.2215 77.6389 74.0762 74.5454 71.024C71.452 67.9719 67.2832 66.2574 62.9375 66.25H43.0625C38.7168 66.2574 34.548 67.9719 31.4546 71.024C28.3611 74.0762 26.5907 78.2215 26.5248 82.5667C20.5178 77.2029 16.2817 70.1411 14.3774 62.3163C12.473 54.4915 12.9903 46.2728 15.8607 38.7485C18.7311 31.2242 23.8193 24.7492 30.4514 20.181C37.0835 15.6127 44.9468 13.1666 53 13.1666C61.0532 13.1666 68.9165 15.6127 75.5486 20.181C82.1808 24.7492 87.2689 31.2242 90.1393 38.7485C93.0097 46.2728 93.527 54.4915 91.6227 62.3163C89.7183 70.1411 85.4822 77.2029 79.4752 82.5667Z" fill="#475467"/>
</svg>
