<svg width="21" height="20" viewBox="0 0 21 20" fill="none" xmlns="http://www.w3.org/2000/svg">
<path d="M9.82142 0.964294H2.35713C2.14106 0.964294 1.96428 1.14108 1.96428 1.35715V8.82144C1.96428 9.03751 2.14106 9.21429 2.35713 9.21429H9.82142C10.0375 9.21429 10.2143 9.03751 10.2143 8.82144V1.35715C10.2143 1.14108 10.0375 0.964294 9.82142 0.964294ZM8.54464 7.54465H3.63392V2.63394H8.54464V7.54465ZM19.6429 0.964294H12.1786C11.9625 0.964294 11.7857 1.14108 11.7857 1.35715V8.82144C11.7857 9.03751 11.9625 9.21429 12.1786 9.21429H19.6429C19.8589 9.21429 20.0357 9.03751 20.0357 8.82144V1.35715C20.0357 1.14108 19.8589 0.964294 19.6429 0.964294ZM18.3661 7.54465H13.4553V2.63394H18.3661V7.54465ZM19.6429 10.7857H12.1786C11.9625 10.7857 11.7857 10.9625 11.7857 11.1786V18.6429C11.7857 18.8589 11.9625 19.0357 12.1786 19.0357H19.6429C19.8589 19.0357 20.0357 18.8589 20.0357 18.6429V11.1786C20.0357 10.9625 19.8589 10.7857 19.6429 10.7857ZM18.3661 17.3661H13.4553V12.4554H18.3661V17.3661ZM8.83928 14.9107H5.69642V11.7679C5.69642 11.6598 5.60803 11.5714 5.49999 11.5714H4.32142C4.21338 11.5714 4.12499 11.6598 4.12499 11.7679V14.9107H0.982134C0.874098 14.9107 0.785706 14.9991 0.785706 15.1072V16.2857C0.785706 16.3938 0.874098 16.4822 0.982134 16.4822H4.12499V19.625C4.12499 19.733 4.21338 19.8214 4.32142 19.8214H5.49999C5.60803 19.8214 5.69642 19.733 5.69642 19.625V16.4822H8.83928C8.94731 16.4822 9.03571 16.3938 9.03571 16.2857V15.1072C9.03571 14.9991 8.94731 14.9107 8.83928 14.9107Z" fill="black"/>
</svg>
