<svg width="22" height="22" viewBox="0 0 22 22" fill="none" xmlns="http://www.w3.org/2000/svg">
<path d="M15.125 11.6875H16.5V13.0625H15.125V11.6875Z" fill="black"/>
<path d="M19.25 5.5H2.75V3.4375H17.875V2.0625H2.75C2.38533 2.0625 2.03559 2.20737 1.77773 2.46523C1.51987 2.72309 1.375 3.07283 1.375 3.4375V17.875C1.375 18.2397 1.51987 18.5894 1.77773 18.8473C2.03559 19.1051 2.38533 19.25 2.75 19.25H19.25C19.6147 19.25 19.9644 19.1051 20.2223 18.8473C20.4801 18.5894 20.625 18.2397 20.625 17.875V6.875C20.625 6.51033 20.4801 6.16059 20.2223 5.90273C19.9644 5.64487 19.6147 5.5 19.25 5.5ZM2.75 17.875V6.875H19.25V8.9375H13.75C13.3853 8.9375 13.0356 9.08237 12.7777 9.34023C12.5199 9.59809 12.375 9.94783 12.375 10.3125V14.4375C12.375 14.8022 12.5199 15.1519 12.7777 15.4098C13.0356 15.6676 13.3853 15.8125 13.75 15.8125H19.25V17.875H2.75ZM19.25 10.3125V14.4375H13.75V10.3125H19.25Z" fill="black"/>
</svg>
